<?xml version="1.0" standalone="no"?>
<!DOCTYPE svg PUBLIC "-//W3C//DTD SVG 20010904//EN"
 "http://www.w3.org/TR/2001/REC-SVG-20010904/DTD/svg10.dtd">
<svg version="1.0" xmlns="http://www.w3.org/2000/svg"
 width="512.000000pt" height="512.000000pt" viewBox="0 0 512.000000 512.000000"
 preserveAspectRatio="xMidYMid meet">
<metadata>
Created by potrace 1.14, written by Peter Selinger 2001-2017
</metadata>
<g transform="translate(0.000000,512.000000) scale(0.100000,-0.100000)"
fill="#000000" stroke="none">
<path d="M4538 5115 c-3 -3 -99 -48 -214 -99 -115 -51 -212 -100 -216 -107 -3
-8 -19 -52 -33 -99 -15 -47 -33 -98 -40 -115 -7 -16 -23 -55 -35 -85 -82 -201
-220 -464 -465 -890 -21 -36 -54 -94 -73 -130 -20 -36 -55 -101 -80 -145 -24
-44 -86 -165 -137 -270 -232 -474 -342 -764 -364 -967 -1 -3 -20 -9 -43 -13
-194 -33 -722 -309 -1213 -634 -55 -37 -226 -152 -380 -257 -238 -162 -338
-228 -443 -289 -210 -122 -365 -202 -446 -229 -71 -24 -83 -32 -91 -63 -3 -16
-38 -115 -76 -222 -38 -106 -68 -195 -66 -197 2 -2 68 32 147 76 79 44 144 80
146 80 2 0 29 15 61 34 32 18 79 45 106 60 84 46 139 77 282 156 160 88 163
90 460 255 213 118 663 367 775 428 576 315 778 432 819 475 108 116 152 164
243 263 102 111 95 98 220 379 11 25 31 70 45 100 14 30 53 118 88 195 34 77
74 165 88 195 14 30 53 118 87 195 34 77 76 169 92 205 17 36 76 169 133 295
150 336 359 802 388 865 14 30 52 117 86 192 33 75 83 187 111 248 45 98 56
133 38 115z"/>
<path d="M3306 4933 c-3 -49 -8 -99 -10 -113 -3 -14 -7 -45 -11 -70 -3 -25 -8
-58 -10 -75 -3 -16 -9 -52 -15 -80 -5 -27 -12 -65 -15 -84 -24 -146 -96 -417
-188 -711 -56 -179 -79 -268 -116 -440 -23 -110 -28 -138 -36 -200 -3 -25 -7
-56 -10 -70 -2 -14 -7 -58 -10 -99 -4 -41 -8 -78 -10 -81 -2 -3 0 -12 6 -20 7
-13 9 -13 10 0 0 8 2 22 4 30 2 8 6 30 10 49 3 19 8 37 10 41 2 3 6 19 9 35 9
51 65 229 105 335 72 193 123 301 288 605 39 71 112 218 149 300 35 78 95 248
97 274 0 14 -60 131 -178 341 -20 36 -42 77 -48 93 -6 15 -14 27 -18 27 -3 0
-9 -39 -13 -87z"/>
<path d="M3729 5005 c-2 -45 -7 -78 -26 -185 -32 -184 -148 -522 -243 -710
-19 -36 -66 -123 -105 -195 -201 -365 -304 -624 -380 -950 -36 -158 -69 -364
-60 -373 3 -3 5 0 5 8 0 18 62 173 133 330 117 259 245 500 604 1140 77 137
190 360 247 486 l36 81 -48 89 c-27 49 -65 118 -84 154 -20 36 -45 83 -57 105
-15 29 -21 34 -22 20z"/>
<path d="M2938 4853 c15 -84 6 -557 -13 -652 -2 -10 -6 -42 -9 -72 -3 -30 -8
-63 -10 -74 -2 -11 -7 -42 -10 -70 -4 -27 -9 -57 -11 -65 -2 -8 -7 -30 -10
-49 -3 -19 -19 -96 -36 -170 -16 -75 -36 -174 -44 -221 -8 -47 -17 -95 -19
-107 -3 -12 -8 -52 -11 -90 -4 -37 -9 -86 -12 -108 -6 -59 -6 -404 0 -445 3
-19 9 -57 12 -85 16 -119 34 -205 44 -205 4 0 4 28 0 63 -7 73 -4 416 5 473 3
21 8 64 11 94 4 30 8 69 11 85 26 161 35 208 69 350 29 122 87 321 130 450 37
112 130 475 128 505 0 14 -221 430 -228 430 -2 0 -1 -17 3 -37z"/>
<path d="M921 4291 c-298 -296 -541 -542 -541 -546 0 -3 74 -80 165 -170 l166
-165 709 707 c391 389 710 709 710 710 0 2 -150 3 -334 3 l-334 0 -541 -539z"/>
<path d="M2584 4777 c3 -9 8 -39 11 -65 4 -26 8 -58 11 -72 21 -126 20 -629
-1 -740 -2 -8 -6 -44 -10 -80 -3 -36 -12 -103 -20 -150 -54 -332 -61 -509 -30
-751 15 -124 72 -302 137 -437 47 -95 68 -127 68 -103 0 5 -4 21 -9 34 -12 31
-48 252 -56 342 -7 77 -7 325 -1 395 10 99 18 172 21 188 1 9 6 40 9 67 9 67
20 128 66 340 39 181 73 390 85 520 l6 70 -132 210 c-142 226 -165 262 -155
232z"/>
<path d="M1161 3539 l-295 -291 300 -297 299 -297 325 2 c179 1 328 2 331 3 3
0 -125 132 -285 291 l-291 290 295 295 295 295 -340 0 -340 0 -294 -291z"/>
<path d="M4015 2899 c-114 -21 -244 -81 -347 -162 -124 -95 -148 -124 -203
-241 -29 -61 -80 -169 -114 -240 -33 -70 -61 -131 -61 -134 0 -2 -66 -71 -147
-153 -81 -82 -149 -152 -152 -157 -3 -5 -69 -41 -146 -82 -412 -215 -430 -225
-430 -239 0 -6 -241 -252 -535 -547 l-535 -535 40 -34 c22 -19 65 -52 96 -74
l56 -40 81 92 c44 51 89 101 99 112 10 11 126 142 257 290 297 336 316 355
214 220 -25 -33 -70 -94 -100 -135 -51 -70 -104 -142 -356 -482 -56 -76 -102
-141 -102 -146 0 -9 161 -92 176 -92 5 0 47 53 94 116 47 64 132 179 190 257
58 78 154 208 214 290 60 81 110 147 113 147 2 0 2 -4 -1 -9 -128 -207 -506
-835 -506 -840 0 -8 152 -53 221 -66 l37 -7 67 124 c38 67 78 141 90 163 12
22 62 112 110 200 48 88 105 191 126 228 22 38 39 73 39 77 0 5 5 12 10 15 12
7 -13 -58 -64 -168 -20 -43 -36 -80 -36 -82 0 -4 -102 -240 -130 -300 -62
-135 -108 -250 -104 -257 15 -24 240 2 367 44 l67 22 1 253 c1 139 2 256 3
261 1 4 6 23 10 42 9 37 44 98 67 117 25 20 93 32 224 37 559 24 977 316 1175
821 21 55 49 136 60 180 12 44 33 100 48 125 63 111 167 224 262 285 108 69
132 75 318 77 73 1 131 4 130 8 -2 4 -81 71 -175 149 -106 87 -173 149 -173
160 0 70 -81 187 -164 236 -44 26 -112 52 -155 60 -14 3 -37 7 -51 11 -40 9
-231 11 -275 3z m275 -268 c110 -58 25 -186 -106 -159 -81 17 -119 86 -76 136
39 44 123 55 182 23z"/>
<path d="M1917 2484 c-1 -1 -35 -5 -74 -8 -91 -9 -213 -30 -323 -57 -154 -37
-205 -49 -230 -54 -14 -3 -59 -11 -100 -20 -101 -20 -122 -23 -220 -36 -47 -6
-96 -12 -109 -14 -100 -16 -478 -24 -542 -11 -62 12 -30 -6 288 -168 173 -88
146 -85 348 -40 161 37 213 50 390 104 181 56 452 124 530 135 61 8 134 18
150 21 34 7 235 18 320 18 104 0 260 -12 310 -24 70 -17 72 -11 5 21 -106 50
-211 85 -315 103 -16 3 -39 8 -50 10 -62 12 -367 28 -378 20z"/>
<path d="M2100 2279 c-65 -7 -124 -15 -170 -24 -14 -2 -41 -6 -60 -9 -79 -11
-189 -38 -372 -92 -106 -31 -240 -70 -297 -86 -157 -44 -422 -100 -541 -114
-30 -3 -68 -8 -85 -10 -16 -2 -102 -7 -190 -10 -88 -4 -161 -7 -162 -9 -2 -1
94 -45 213 -98 l216 -96 140 45 c176 57 400 142 557 211 135 60 507 174 651
199 14 2 48 9 75 15 72 14 116 21 315 44 19 2 94 4 165 5 130 2 133 9 11 26
-65 9 -395 11 -466 3z"/>
<path d="M2145 2147 c-257 -45 -640 -158 -821 -242 -248 -115 -834 -303 -1059
-339 -54 -9 -130 -20 -137 -21 -27 -1 -3 -17 85 -54 56 -24 134 -59 172 -76
172 -80 194 -87 222 -80 40 9 282 129 383 189 47 27 160 100 251 162 296 199
571 333 894 435 115 37 118 45 10 26z"/>
<path d="M2345 2110 c-219 -55 -413 -125 -620 -224 -174 -83 -252 -129 -485
-281 -307 -201 -482 -292 -725 -378 -114 -40 -220 -73 -220 -67 0 1 -13 -4
-29 -10 -16 -6 -47 -13 -69 -16 -23 -2 -42 -6 -44 -8 -2 -1 86 -42 194 -90
l198 -88 50 26 c27 14 71 38 97 53 25 15 73 43 105 62 87 51 284 180 518 342
266 183 492 328 714 459 167 97 382 212 446 237 29 11 29 11 5 11 -14 0 -74
-12 -135 -28z"/>
</g>
</svg>
